<?xml version="1.0" encoding="utf-8"?>
<!-- Generator: Adobe Illustrator 16.0.0, SVG Export Plug-In . SVG Version: 6.00 Build 0)  -->
<!DOCTYPE svg PUBLIC "-//W3C//DTD SVG 1.1//EN" "http://www.w3.org/Graphics/SVG/1.1/DTD/svg11.dtd">
<svg version="1.1" id="Layer_1" xmlns="http://www.w3.org/2000/svg" xmlns:xlink="http://www.w3.org/1999/xlink" x="0px" y="0px"
	 width="135px" height="61px" viewBox="0 0 135 61" enable-background="new 0 0 135 61" xml:space="preserve">
<g id="XMLID_1_">
	<g>
		<path fill="#FF8D6A" d="M128.762,10.137c3.073,1.256,5.356,1.877,6.114,2.067c-1.808,1.54-13.72,11.703-14.822,13.05
			c0-0.009,0.008-0.058,0.02-0.141C120.76,24.195,125.056,18.307,128.762,10.137z"/>
		<path fill="#82BC00" d="M132.495,0.002C132.496,0.001,132.496,0,132.496,0S132.238,5.757,135,11.779
			c-2.047-0.482-4.117-1.202-6.07-2.013C130.273,6.766,131.528,3.468,132.495,0.002z"/>
		<path fill="#82BC00" d="M132.496,0c0,0,0,0-0.001,0.002c-0.043,0.113-1.432,3.765-4.168,9.509
			c-4.597-1.974-8.431-4.357-9.543-5.071C119.517,4.472,125.899,4.605,132.496,0z"/>
		<path fill="#FFC700" d="M128.151,9.883c-2,4.179-4.69,9.417-8.07,15.183c0.241-1.723,1.939-14.7-0.984-20.012
			C122.345,7.194,125.505,8.765,128.151,9.883z"/>
		<path fill="#82BC00" d="M116.267,42.095l8.135,10.24c-2.189,0.426-4.377,0.426-6.567,0l-7.302-9.359v9.359
			c-1.928,0.359-3.855,0.359-5.783,0V23.764c1.592-0.92,3.503-2.112,5.413-3.346c0.123,0.02,0.247,0.041,0.37,0.064v20.779
			l7.057-8.527c2.189-0.425,4.378-0.425,6.567,0L116.267,42.095z"/>
		<path fill="#FFC700" d="M37.625,42.895c0.211-0.028,0.422-0.057,0.633-0.085c0.292-0.039,0.582-0.079,0.872-0.119
			c0.047-0.006,0.094-0.014,0.141-0.02c0.242-0.034,0.484-0.067,0.725-0.102c0.482-0.069,0.961-0.139,1.438-0.208
			c0.476-0.07,0.95-0.142,1.421-0.214c29.867-4.568,49.223-12.692,60.421-18.892c4.346-2.407,12.007-7.578,14.688-9.566
			c0.005,0.191,0.009,0.381,0.013,0.571c-2.659,1.956-10.254,7.069-14.474,9.405c-7.603,4.207-16.366,7.915-26.05,11.019
			c-10.494,3.364-22.12,6.025-34.598,7.929v0.001c-1.908,0.29-3.836,0.563-5.783,0.819v-0.058v-0.407
			C37.256,42.944,37.44,42.92,37.625,42.895z"/>
		<path fill="#99999A" d="M104.749,20.481c0.745-0.139,1.49-0.223,2.234-0.255c-0.771,0.484-1.524,0.945-2.234,1.369V20.481z"/>
		<path fill="#82BC00" d="M100.805,36.555c0.017,1.209-0.09,1.978-0.318,2.304c-2.255-1.34-4.297-2.008-6.126-2.008
			c-1.666,0-3.055,0.513-4.166,1.542c-1.11,1.03-1.666,2.409-1.666,4.144c0,1.73,0.556,3.11,1.666,4.14
			c1.111,1.029,2.5,1.544,4.166,1.544c1.829,0,3.871-0.67,6.126-2.01c0.229,0.327,0.335,1.095,0.318,2.304
			c-0.017,1.208-0.122,2.025-0.318,2.451c-1.797,1.403-4.035,2.105-6.715,2.105c-3.266,0-5.921-0.979-7.963-2.94
			c-2.042-1.96-3.063-4.491-3.063-7.594c0-3.104,1.021-5.638,3.063-7.598c2.042-1.961,4.697-2.94,7.963-2.94
			c2.68,0,4.918,0.702,6.715,2.107C100.683,34.529,100.788,35.347,100.805,36.555z"/>
		<path fill="#99999A" d="M78.507,21.903c0.702,0.653,1.054,1.486,1.054,2.499c0,1.011-0.352,1.846-1.054,2.498
			c-0.702,0.654-1.576,0.981-2.622,0.981s-1.92-0.327-2.621-0.981c-0.702-0.652-1.056-1.487-1.056-2.498
			c0-1.013,0.354-1.846,1.056-2.499c0.701-0.654,1.575-0.981,2.621-0.981S77.805,21.249,78.507,21.903z"/>
		<path fill="#82BC00" d="M78.776,34.993v17.342c-1.927,0.359-3.855,0.359-5.783,0V36.783c1.582-0.462,3.139-0.938,4.673-1.431
			C78.038,35.233,78.408,35.113,78.776,34.993z"/>
		<path fill="#99999A" d="M78.776,32.733v0.271c-1.849,0.613-3.777,1.217-5.783,1.812v-2.082
			C74.921,32.374,76.85,32.374,78.776,32.733z"/>
		<path fill="#82BC00" d="M68.234,38.108c0.493,1.33,0.741,2.805,0.741,4.428c0,3.004-0.85,5.512-2.549,7.521
			c-1.699,2.009-3.937,3.013-6.714,3.013c-2.581,0-4.655-0.914-6.224-2.743v9.996c-1.928,0.36-3.855,0.36-5.783,0V42.54
			c1.951-0.334,3.879-0.687,5.783-1.057v4.482c1.339,1.405,2.892,2.107,4.655,2.107c1.503,0,2.721-0.507,3.652-1.521
			c0.931-1.013,1.397-2.353,1.397-4.017c0-1.157-0.225-2.155-0.673-2.997C64.455,39.083,66.359,38.606,68.234,38.108z"/>
		<path fill="#99999A" d="M66.427,35.011c0.367,0.435,0.691,0.89,0.979,1.369c-2.013,0.531-4.097,1.052-6.255,1.554
			c-0.825-0.623-1.829-0.937-3.007-0.937c-1.764,0-3.316,0.702-4.655,2.107v0.473c-1.879,0.371-3.806,0.727-5.783,1.07v-7.914
			c1.667-0.327,3.332-0.327,4.999,0l0.441,2.449c1.666-2.122,3.854-3.185,6.566-3.185C62.49,31.998,64.728,33.002,66.427,35.011z"/>
		<path fill="#99999A" d="M42.585,21.903c0.703,0.653,1.054,1.486,1.054,2.499c0,1.011-0.352,1.846-1.054,2.498
			c-0.702,0.654-1.576,0.981-2.622,0.981c-1.045,0-1.92-0.327-2.622-0.981c-0.703-0.652-1.054-1.487-1.054-2.498
			c0-1.013,0.351-1.846,1.054-2.499c0.702-0.654,1.577-0.981,2.622-0.981C41.009,20.922,41.883,21.249,42.585,21.903z"/>
		<path fill="#99999A" d="M42.854,43.945v8.39c-1.928,0.359-3.855,0.359-5.783,0v-8.192v-0.197H42.854z"/>
		<polygon fill="#FFC700" points="42.854,43.559 42.854,43.945 37.071,43.945 37.071,43.765 39.053,43.559 		"/>
		<path fill="#99999A" d="M42.854,43.322v0.236h-3.801l-1.982,0.206v-0.239v-0.092c1.947-0.256,3.875-0.529,5.783-0.819V43.322z"/>
		<path fill="#99999A" d="M42.854,42.147L42.854,42.147c-0.471,0.072-0.945,0.144-1.421,0.214c-0.477,0.069-0.957,0.139-1.438,0.208
			c-0.241,0.034-0.482,0.067-0.725,0.102c-0.047,0.006-0.094,0.014-0.141,0.02c-0.289,0.04-0.58,0.079-0.872,0.119
			c-0.21,0.028-0.421,0.057-0.633,0.085c-0.185,0.025-0.369,0.05-0.554,0.074v-0.708v-9.527c1.928-0.359,3.855-0.359,5.783,0v8.704
			V42.147z"/>
		<path fill="#99999A" d="M38.258,42.81c0.292-0.04,0.583-0.079,0.872-0.119C38.839,42.73,38.549,42.771,38.258,42.81z"/>
		<path fill="#99999A" d="M33.347,32.879c0.197,0.327,0.294,1.283,0.294,2.868c0,1.586-0.097,2.605-0.294,3.063
			c-1.535-1.014-2.955-1.519-4.264-1.519c-0.979,0-1.943,0.35-2.89,1.053c-0.949,0.703-1.7,1.577-2.254,2.623v11.368
			c-1.928,0.359-3.856,0.359-5.784,0V32.733c1.667-0.327,3.332-0.327,4.998,0l0.639,3.577c1.634-2.874,3.691-4.313,6.175-4.313
			C31.371,31.998,32.498,32.292,33.347,32.879z"/>
		<path fill="#99999A" d="M15.46,20.776c0.196,0.457,0.293,1.332,0.293,2.622c0,1.291-0.097,2.099-0.293,2.426
			c-1.504-0.818-2.663-1.226-3.48-1.226c-1.83,0-2.744,1.045-2.744,3.136v5h5.341c0.359,1.634,0.359,3.251,0,4.852H9.237v14.75
			c-1.928,0.359-3.855,0.359-5.783,0v-14.75H0.562c-0.36-1.601-0.36-3.218,0-4.852h2.892v-6.176c0-2.155,0.678-3.83,2.034-5.022
			c1.356-1.193,3.014-1.789,4.974-1.789C12.227,19.746,13.892,20.089,15.46,20.776z"/>
	</g>
	<g>
	</g>
</g>
</svg>
